<svg width="100" height="100" viewBox="0 0 100 100" fill="none" xmlns="http://www.w3.org/2000/svg">
<rect width="100" height="100" rx="12" fill="#303030"/>
<path d="M74.6045 78.2267C68.9229 82.9941 61.9552 85.9697 54.5825 86.7771C47.2098 87.5846 39.7632 86.1876 33.1844 82.7629C26.6056 79.3382 21.1901 74.0396 17.6227 67.5371C14.0554 61.0346 12.4963 53.6202 13.1427 46.2317C13.7891 38.8431 16.612 31.8121 21.2543 26.0279C25.8967 20.2436 32.15 15.9659 39.2235 13.7356C46.2971 11.5053 53.8731 11.4227 60.9936 13.4981C68.1141 15.5736 74.4592 19.7139 79.2267 25.3955L64.8633 37.4477C62.4796 34.6069 59.307 32.5368 55.7468 31.4991C52.1865 30.4613 48.3985 30.5027 44.8618 31.6178C41.325 32.7329 38.1983 34.8718 35.8772 37.7639C33.556 40.6561 32.1446 44.1715 31.8213 47.8658C31.4981 51.5601 32.2777 55.2673 34.0614 58.5185C35.8451 61.7698 38.5528 64.4191 41.8422 66.1315C45.1316 67.8438 48.8549 68.5423 52.5413 68.1386C56.2276 67.7348 59.7115 66.247 62.5523 63.8633L74.6045 78.2267Z" fill="url(#paint0_linear_24_38)"/>
<rect x="70" y="50" width="20" height="20" rx="8" fill="url(#paint1_linear_24_38)"/>
<defs>
<linearGradient id="paint0_linear_24_38" x1="50.5" y1="12" x2="50.5" y2="87" gradientUnits="userSpaceOnUse">
<stop stop-color="#CC00FF"/>
<stop offset="1" stop-color="#646464"/>
</linearGradient>
<linearGradient id="paint1_linear_24_38" x1="80" y1="50" x2="80" y2="70" gradientUnits="userSpaceOnUse">
<stop stop-color="#CC00FF"/>
<stop offset="1" stop-color="#646464"/>
</linearGradient>
</defs>
</svg>
